<?xml version="1.0" encoding="UTF-8"?>
<svg id="Lager_1" xmlns="http://www.w3.org/2000/svg" version="1.1" viewBox="0 0 50 50">
  <!-- Generator: Adobe Illustrator 29.5.1, SVG Export Plug-In . SVG Version: 2.1.0 Build 141)  -->
  <defs>
    <style>
      .st0 {
        fill: #ffcc07;
        fill-rule: evenodd;
      }
    </style>
  </defs>
  <g id="g11182">
    <path id="flag_star" class="st0" d="M43.29,27.43l-1.61-1.21-1.68,1.2.65-1.91-1.66-1.23,2.01.03.66-1.96.59,1.93,2.07.02-1.65,1.16.62,1.97h0Z"/>
    <g id="use10441">
      <path id="flag_star1" data-name="flag_star" class="st0" d="M41.11,19.28l-1.61-1.21-1.68,1.2.65-1.91-1.66-1.23,2.01.03.66-1.96.59,1.93,2.07.02-1.65,1.16.62,1.97h0Z"/>
    </g>
    <g id="use10444">
      <g id="use104411" data-name="use10441">
        <path id="flag_star2" data-name="flag_star" class="st0" d="M35.31,13.39l-1.61-1.21-1.68,1.2.65-1.91-1.66-1.23,2.01.03.66-1.96.59,1.93,2.07.02-1.65,1.16.62,1.97h0Z"/>
      </g>
    </g>
    <g id="use10445">
      <g id="use104441" data-name="use10444">
        <g id="use104412" data-name="use10441">
          <path id="flag_star3" data-name="flag_star" class="st0" d="M27.15,11.12l-1.61-1.21-1.68,1.2.65-1.91-1.66-1.23,2.01.03.66-1.96.59,1.93,2.07.02-1.65,1.16.62,1.97h0Z"/>
        </g>
      </g>
    </g>
    <g id="use10446">
      <g id="use104451" data-name="use10445">
        <g id="use104442" data-name="use10444">
          <g id="use104413" data-name="use10441">
            <path id="flag_star4" data-name="flag_star" class="st0" d="M19.08,13.31l-1.61-1.21-1.68,1.2.65-1.91-1.66-1.23,2.01.03.66-1.96.59,1.93,2.07.02-1.65,1.16.62,1.97h0Z"/>
          </g>
        </g>
      </g>
    </g>
    <g id="use10447">
      <g id="use104461" data-name="use10446">
        <g id="use104452" data-name="use10445">
          <g id="use104443" data-name="use10444">
            <g id="use104414" data-name="use10441">
              <path id="flag_star5" data-name="flag_star" class="st0" d="M13.03,19.19l-1.61-1.21-1.68,1.2.65-1.91-1.66-1.23,2.01.03.66-1.96.59,1.93,2.07.02-1.65,1.16.62,1.97h0Z"/>
            </g>
          </g>
        </g>
      </g>
    </g>
    <g id="use10448">
      <g id="use104471" data-name="use10447">
        <g id="use104462" data-name="use10446">
          <g id="use104453" data-name="use10445">
            <g id="use104444" data-name="use10444">
              <g id="use104415" data-name="use10441">
                <path id="flag_star6" data-name="flag_star" class="st0" d="M10.85,27.35l-1.61-1.21-1.68,1.2.65-1.91-1.66-1.23,2.01.03.66-1.96.59,1.93,2.07.02-1.65,1.16.62,1.97h0Z"/>
              </g>
            </g>
          </g>
        </g>
      </g>
    </g>
    <g id="use10449">
      <g id="use104481" data-name="use10448">
        <g id="use104472" data-name="use10447">
          <g id="use104463" data-name="use10446">
            <g id="use104454" data-name="use10445">
              <g id="use104445" data-name="use10444">
                <g id="use104416" data-name="use10441">
                  <path id="flag_star7" data-name="flag_star" class="st0" d="M13.03,35.67l-1.61-1.21-1.68,1.2.65-1.91-1.66-1.23,2.01.03.66-1.96.59,1.93,2.07.02-1.65,1.16.62,1.97h0Z"/>
                </g>
              </g>
            </g>
          </g>
        </g>
      </g>
    </g>
    <g id="use10450">
      <g id="use104491" data-name="use10449">
        <g id="use104482" data-name="use10448">
          <g id="use104473" data-name="use10447">
            <g id="use104464" data-name="use10446">
              <g id="use104455" data-name="use10445">
                <g id="use104446" data-name="use10444">
                  <g id="use104417" data-name="use10441">
                    <path id="flag_star8" data-name="flag_star" class="st0" d="M18.92,41.72l-1.61-1.21-1.68,1.2.65-1.91-1.66-1.23,2.01.03.66-1.96.59,1.93,2.07.02-1.65,1.16.62,1.97h0Z"/>
                  </g>
                </g>
              </g>
            </g>
          </g>
        </g>
      </g>
    </g>
    <g id="use10451">
      <g id="use104501" data-name="use10450">
        <g id="use104492" data-name="use10449">
          <g id="use104483" data-name="use10448">
            <g id="use104474" data-name="use10447">
              <g id="use104465" data-name="use10446">
                <g id="use104456" data-name="use10445">
                  <g id="use104447" data-name="use10444">
                    <g id="use104418" data-name="use10441">
                      <path id="flag_star9" data-name="flag_star" class="st0" d="M27.07,43.9l-1.61-1.21-1.68,1.2.65-1.91-1.66-1.23,2.01.03.66-1.96.59,1.93,2.07.02-1.65,1.16.62,1.97h0Z"/>
                    </g>
                  </g>
                </g>
              </g>
            </g>
          </g>
        </g>
      </g>
    </g>
    <g id="use10452">
      <g id="use104511" data-name="use10451">
        <g id="use104502" data-name="use10450">
          <g id="use104493" data-name="use10449">
            <g id="use104484" data-name="use10448">
              <g id="use104475" data-name="use10447">
                <g id="use104466" data-name="use10446">
                  <g id="use104457" data-name="use10445">
                    <g id="use104448" data-name="use10444">
                      <g id="use104419" data-name="use10441">
                        <path id="flag_star10" data-name="flag_star" class="st0" d="M35.22,41.72l-1.61-1.21-1.68,1.2.65-1.91-1.66-1.23,2.01.03.66-1.96.59,1.93,2.07.02-1.65,1.16.62,1.97h0Z"/>
                      </g>
                    </g>
                  </g>
                </g>
              </g>
            </g>
          </g>
        </g>
      </g>
    </g>
    <g id="use10453">
      <g id="use104521" data-name="use10452">
        <g id="use104512" data-name="use10451">
          <g id="use104503" data-name="use10450">
            <g id="use104494" data-name="use10449">
              <g id="use104485" data-name="use10448">
                <g id="use104476" data-name="use10447">
                  <g id="use104467" data-name="use10446">
                    <g id="use104458" data-name="use10445">
                      <g id="use104449" data-name="use10444">
                        <g id="use1044110" data-name="use10441">
                          <path id="flag_star11" data-name="flag_star" class="st0" d="M41.27,35.67l-1.61-1.21-1.68,1.2.65-1.91-1.66-1.23,2.01.03.66-1.96.59,1.93,2.07.02-1.65,1.16.62,1.97h0Z"/>
                        </g>
                      </g>
                    </g>
                  </g>
                </g>
              </g>
            </g>
          </g>
        </g>
      </g>
    </g>
  </g>
</svg>