<svg width="1096" height="256" viewBox="0 0 1096 256" fill="none" xmlns="http://www.w3.org/2000/svg">
<g clip-path="url(#clip0_2017_1096)">
<path d="M128.005 0C57.3127 0 0 57.3127 0 128.005C0 198.697 57.3127 256.01 128.005 256.01C198.697 256.01 256.01 198.697 256.01 128.005C256.01 57.3127 198.697 0 128.005 0ZM196.829 153.495C196.829 177.708 177.205 197.332 152.992 197.332C143.698 197.332 135.091 194.437 128.005 189.5C120.918 194.428 112.302 197.332 103.018 197.332C78.805 197.332 59.1812 177.708 59.1812 153.495V77.5174C59.1812 67.1101 67.6232 58.6681 78.0305 58.6681C88.4378 58.6681 96.8798 67.1101 96.8798 77.5174V93.3074H96.8991V152.324C96.8991 152.44 96.8798 152.556 96.8798 152.673C96.8798 156.061 99.6292 158.81 103.018 158.81C106.406 158.81 109.156 156.061 109.156 152.673H109.175V93.2009V77.5174C109.175 67.1101 117.617 58.6681 128.024 58.6681C138.432 58.6681 146.874 67.1101 146.874 77.5174V93.0944L146.893 93.3074V152.324C146.893 152.44 146.874 152.556 146.874 152.673C146.874 156.071 149.623 158.81 153.011 158.81C156.4 158.81 159.149 156.061 159.149 152.673H159.169V108.633H196.858V153.495H196.829ZM196.829 96.3667H159.14V77.5174C159.14 67.1101 167.582 58.6681 177.989 58.6681H196.838C207.245 58.6681 215.687 67.1101 215.687 77.5174C215.687 87.9247 207.245 96.3667 196.838 96.3667H196.829Z" fill="#347CFC"/>
</g>
<path d="M1055.01 169.886C1027.84 169.886 1011.12 151.079 1011.12 126.163C1011.12 101.57 1028.32 82.7627 1053.4 82.7627C1065.13 82.7627 1074.46 86.6205 1081.53 93.0503C1091.33 102.052 1096.16 116.358 1096 133.075H1036.84C1038.45 144.167 1044.56 151.079 1055.33 151.079C1062.24 151.079 1066.74 148.024 1068.99 142.881H1094.55C1092.78 150.275 1087.96 157.348 1080.73 162.331C1073.81 167.153 1065.45 169.886 1055.01 169.886ZM1037 117.483H1069.47C1068.51 107.678 1062.4 101.409 1053.88 101.409C1043.92 101.409 1038.77 107.678 1037 117.483Z" fill="#212934"/>
<path d="M970.625 170.047C944.103 170.047 926.903 151.24 926.903 126.485C926.903 101.731 943.942 82.9238 969.982 82.9238C992.326 82.9238 1006.63 95.944 1009.04 114.43H983.806C982.199 107.035 977.698 102.213 970.304 102.213C959.052 102.213 953.426 111.536 953.426 126.485C953.426 141.113 959.052 150.436 970.304 150.436C978.502 150.436 983.485 145.614 984.61 136.291H1009.69C1009.04 155.258 993.933 170.047 970.625 170.047Z" fill="#212934"/>
<path d="M871.123 169.564C854.727 169.564 842.993 160.724 842.993 144.488C842.993 126.325 857.46 120.859 874.498 118.609C889.93 116.68 895.395 115.072 895.395 109.446C895.395 104.142 892.019 100.606 884.143 100.606C875.784 100.606 871.605 104.303 870.801 111.215H846.69C847.333 95.944 859.067 82.9238 883.982 82.9238C896.359 82.9238 904.718 85.1742 910.666 89.675C917.738 94.8188 921.114 102.856 921.114 113.144V154.615C921.114 161.206 921.757 164.903 924.007 166.35V167.475H898.61C897.324 165.707 896.52 162.492 895.877 158.312H895.556C890.733 165.224 883.5 169.564 871.123 169.564ZM879.481 152.847C889.287 152.847 896.038 146.9 896.038 138.059V128.253C892.662 130.022 887.84 131.308 882.536 132.593C872.409 134.844 868.229 137.416 868.229 143.685C868.229 150.275 873.052 152.847 879.481 152.847Z" fill="#212934"/>
<path d="M810.825 167.474V52.543H837.348V167.474H810.825Z" fill="#212934"/>
<path d="M719.38 194.64V85.1738H744.456V95.1399H744.938C750.564 87.7457 758.601 82.7627 769.853 82.7627C791.714 82.7627 805.056 101.57 805.056 126.324C805.056 153.007 790.75 170.046 769.21 170.046C758.601 170.046 751.046 165.867 745.903 158.955H745.581V194.64H719.38ZM762.459 149.793C772.425 149.793 778.533 141.273 778.533 127.289C778.533 113.143 773.229 103.82 761.977 103.82C750.564 103.82 744.777 113.947 744.777 127.289C744.777 140.63 751.207 149.793 762.459 149.793Z" fill="#212934"/>
<path d="M683.355 167.474V52.543H709.878V167.474H683.355Z" fill="#212934"/>
<path d="M636.648 169.886C609.482 169.886 592.765 151.079 592.765 126.163C592.765 101.57 609.964 82.7627 635.04 82.7627C646.774 82.7627 656.097 86.6205 663.17 93.0503C672.976 102.052 677.798 116.358 677.637 133.075H618.484C620.091 144.167 626.199 151.079 636.969 151.079C643.881 151.079 648.382 148.024 650.632 142.881H676.19C674.422 150.275 669.6 157.348 662.366 162.331C655.454 167.153 647.096 169.886 636.648 169.886ZM618.644 117.483H651.114C650.15 107.678 644.042 101.409 635.522 101.409C625.556 101.409 620.412 107.678 618.644 117.483Z" fill="#212934"/>
<path d="M549.915 169.886C522.75 169.886 506.032 151.079 506.032 126.163C506.032 101.57 523.232 82.7627 548.308 82.7627C560.042 82.7627 569.365 86.6205 576.438 93.0503C586.243 102.052 591.065 116.358 590.905 133.075H531.751C533.359 144.167 539.467 151.079 550.237 151.079C557.149 151.079 561.649 148.024 563.9 142.881H589.458C587.69 150.275 582.867 157.348 575.634 162.331C568.722 167.153 560.363 169.886 549.915 169.886ZM531.912 117.483H564.382C563.418 107.678 557.309 101.409 548.79 101.409C538.824 101.409 533.68 107.678 531.912 117.483Z" fill="#212934"/>
<path d="M421.271 167.474V52.543H447.472V95.3007H447.954C453.901 87.4242 460.974 82.7627 472.387 82.7627C490.39 82.7627 500.999 95.6221 500.999 113.947V167.474H474.798V119.251C474.798 110.571 470.458 104.624 461.939 104.624C453.258 104.624 447.472 111.857 447.472 121.984V167.474H421.271Z" fill="#212934"/>
<path d="M317.237 167.474L292 85.1738H318.683L327.685 119.251C329.453 125.842 331.382 135.165 331.382 135.165H331.704C331.704 135.165 333.632 125.681 335.401 118.769L344.081 85.1738H366.263L375.265 118.769C377.033 125.842 379.123 135.326 379.123 135.326H379.444C379.444 135.326 381.534 125.842 383.302 119.251L392.464 85.1738H418.344L393.107 167.474H368.514L358.869 130.182C357.101 123.752 355.333 115.394 355.333 115.394H355.011C355.011 115.394 353.082 123.752 351.314 130.182L341.509 167.474H317.237Z" fill="#212934"/>
<defs>
<clipPath id="clip0_2017_1096">
<rect width="256" height="256" fill="white"/>
</clipPath>
</defs>
</svg>
