<?xml version="1.0" encoding="UTF-8"?>
<svg id="Layer_1" xmlns="http://www.w3.org/2000/svg" version="1.1" viewBox="0 0 712.13 174.88">
  <!-- Generator: Adobe Illustrator 29.5.1, SVG Export Plug-In . SVG Version: 2.1.0 Build 141)  -->
  <defs>
    <style>
      .st0 {
        fill: #04da8d;
      }

      .st1 {
        fill: #005129;
      }

      .st2 {
        fill: #181818;
      }
    </style>
  </defs>
  <path class="st2" d="M187.19,62h72.06v13.48h-28.32v75.58h-15.62v-75.58h-28.22l.1-13.48h0ZM256.12,86.61h13.38v12.4h.29c.49-1.76,1.27-3.42,2.44-5.08s2.64-3.22,4.3-4.49c1.66-1.37,3.61-2.44,5.66-3.32,2.05-.78,4.2-1.27,6.35-1.27,1.66,0,2.83.1,3.42.1.59.1,1.27.2,1.95.29v13.67c-.98-.2-2.05-.29-3.12-.49-1.07-.1-2.05-.2-3.12-.2-2.34,0-4.69.49-6.84,1.46s-4,2.34-5.57,4.2c-1.56,1.86-2.83,4.1-3.81,6.93-.98,2.73-1.37,5.86-1.37,9.47v30.66h-14.16l.2-64.35h0v.02ZM359.24,151.06h-13.96v-8.98h-.29c-1.76,3.22-4.3,5.86-7.81,7.81-3.42,1.95-6.93,2.93-10.55,2.93-8.5,0-14.65-2.05-18.45-6.25-3.81-4.2-5.66-10.55-5.66-19.04v-40.91h14.16v39.55c0,5.66,1.07,9.67,3.22,12.01s5.18,3.52,9.08,3.52c3.03,0,5.47-.49,7.52-1.37,2.05-.98,3.61-2.15,4.88-3.71,1.27-1.46,2.15-3.42,2.73-5.57.59-2.15.78-4.49.78-6.93v-37.4h14.16v64.35h.2-.01ZM383.45,130.36c.49,4.1,2.05,7.03,4.69,8.69,2.73,1.66,6.05,2.54,9.86,2.54,1.37,0,2.83-.1,4.49-.29,1.66-.2,3.32-.59,4.78-1.17,1.46-.59,2.73-1.46,3.71-2.54.98-1.17,1.37-2.54,1.37-4.39-.1-1.86-.78-3.32-2.05-4.49s-2.83-2.05-4.78-2.83c-1.95-.68-4.1-1.37-6.64-1.86s-4.98-1.07-7.62-1.66c-2.64-.59-5.18-1.37-7.71-2.15-2.44-.78-4.69-1.95-6.64-3.42-1.95-1.37-3.52-3.22-4.69-5.37-1.17-2.25-1.76-4.88-1.76-8.2,0-3.52.88-6.44,2.54-8.79s3.91-4.3,6.44-5.76c2.64-1.46,5.57-2.44,8.69-3.12,3.22-.59,6.25-.88,9.18-.88,3.32,0,6.54.39,9.57,1.07s5.76,1.86,8.2,3.42,4.49,3.61,6.05,6.15c1.66,2.54,2.64,5.57,3.12,9.18h-14.84c-.68-3.42-2.25-5.76-4.69-6.84-2.44-1.17-5.27-1.76-8.4-1.76-.98,0-2.25.1-3.61.29s-2.64.49-3.91.98c-1.17.49-2.25,1.17-3.12,2.05-.78.88-1.27,2.05-1.27,3.42,0,1.76.59,3.12,1.86,4.2,1.17,1.07,2.73,1.95,4.69,2.73,1.95.68,4.1,1.37,6.64,1.86s5.08,1.07,7.71,1.66c2.54.59,5.08,1.37,7.62,2.15s4.69,1.95,6.64,3.42,3.52,3.22,4.69,5.37,1.86,4.88,1.86,8.01c0,3.81-.88,7.03-2.64,9.76-1.76,2.64-4,4.88-6.84,6.44-2.73,1.66-5.96,2.93-9.28,3.61-3.42.78-6.84,1.17-10.16,1.17-4.1,0-7.81-.49-11.33-1.37-3.42-.98-6.44-2.34-8.98-4.1-2.54-1.86-4.49-4.2-5.96-6.93s-2.25-6.05-2.34-9.96h14.35v-.29h.51ZM430.32,86.61h10.74v-19.33h14.16v19.33h12.79v10.64h-12.79v34.47c0,1.46.1,2.73.2,3.91.1,1.07.39,2.05.88,2.73.49.78,1.17,1.37,2.05,1.66.98.39,2.15.59,3.81.59.98,0,2.05,0,3.03-.1s2.05-.2,3.03-.49v11.03c-1.56.2-3.12.29-4.59.49s-3.03.29-4.59.29c-3.81,0-6.84-.39-9.08-1.07-2.25-.68-4.1-1.76-5.37-3.12-1.37-1.37-2.15-3.12-2.64-5.18s-.78-4.49-.78-7.13v-37.98h-10.74l-.1-10.74h-.01ZM478.07,86.61h13.48v8.69h.29c2.05-3.81,4.78-6.44,8.4-8.01,3.61-1.66,7.42-2.44,11.62-2.44,5.08,0,9.47.88,13.28,2.73,3.81,1.76,6.93,4.2,9.47,7.32s4.3,6.84,5.57,10.94,1.86,8.59,1.86,13.28c0,4.3-.59,8.59-1.66,12.6-1.17,4.1-2.83,7.71-5.08,10.84-2.25,3.12-5.18,5.57-8.69,7.52-3.52,1.86-7.62,2.83-12.4,2.83-2.05,0-4.1-.2-6.25-.59-2.05-.39-4.1-.98-5.96-1.86-1.86-.78-3.71-1.86-5.27-3.22-1.66-1.37-2.93-2.83-4.1-4.49h-.29v32.13h-14.16l-.1-88.27h0ZM527.77,118.93c0-2.93-.39-5.76-1.17-8.5s-1.86-5.18-3.42-7.32c-1.46-2.15-3.42-3.81-5.57-5.08-2.25-1.27-4.88-1.95-7.71-1.95-5.96,0-10.45,2.05-13.48,6.25-3.03,4.1-4.49,9.67-4.49,16.6,0,3.22.39,6.25,1.17,9.08.78,2.73,1.95,5.18,3.61,7.13,1.56,2.05,3.42,3.61,5.66,4.69,2.25,1.17,4.78,1.76,7.62,1.76,3.22,0,5.96-.68,8.2-2.05,2.25-1.37,4.1-3.12,5.57-5.18,1.46-2.15,2.54-4.49,3.12-7.23.59-2.64.88-5.37.88-8.2h0ZM552.87,62h14.16v13.48h-14.16s0-13.48,0-13.48ZM552.87,86.61h14.16v64.45h-14.16v-64.45ZM579.72,62h14.16v89.05h-14.16V62ZM637.43,152.82c-5.18,0-9.76-.88-13.77-2.54-4-1.66-7.42-4.1-10.25-7.03-2.73-3.03-4.88-6.64-6.35-10.74s-2.25-8.69-2.25-13.67.78-9.47,2.25-13.57,3.61-7.71,6.35-10.74c2.73-3.03,6.25-5.37,10.25-7.03s8.59-2.54,13.77-2.54,9.76.88,13.77,2.54c4,1.66,7.42,4.1,10.25,7.03,2.73,3.03,4.88,6.64,6.35,10.74s2.25,8.69,2.25,13.57-.78,9.57-2.25,13.67-3.61,7.71-6.35,10.74-6.25,5.37-10.25,7.03-8.59,2.54-13.77,2.54ZM637.43,141.59c3.12,0,5.96-.68,8.2-2.05,2.34-1.37,4.2-3.12,5.76-5.18,1.46-2.15,2.54-4.59,3.32-7.32.68-2.73,1.07-5.47,1.07-8.3s-.39-5.47-1.07-8.2c-.68-2.73-1.86-5.18-3.32-7.32s-3.42-3.81-5.76-5.18-5.08-2.05-8.2-2.05-5.86.68-8.2,2.05-4.2,3.12-5.76,5.18c-1.46,2.15-2.54,4.49-3.32,7.32-.68,2.73-1.07,5.47-1.07,8.2s.39,5.57,1.07,8.3,1.86,5.18,3.32,7.32,3.42,3.91,5.76,5.18c2.34,1.46,5.08,2.05,8.2,2.05ZM674.14,86.61h10.74v-19.33h14.26v19.33h12.79v10.64h-12.79v34.47c0,1.46.1,2.73.2,3.91.1,1.07.39,2.05.88,2.73.49.78,1.17,1.37,2.05,1.66.98.39,2.15.59,3.81.59.98,0,2.05,0,3.03-.1s2.05-.2,3.03-.49v11.03c-1.56.2-3.12.29-4.59.49s-3.03.29-4.59.29c-3.81,0-6.84-.39-9.08-1.07-2.25-.68-4.1-1.76-5.37-3.12-1.37-1.37-2.15-3.12-2.64-5.18s-.78-4.49-.78-7.13v-37.98h-10.74v-10.74h-.21Z"/>
  <path class="st0" d="M170.59,62h-65.13L85.34,0l-20.21,62-65.13-.1,52.73,38.37-20.21,61.91,52.73-38.28,52.63,38.28-20.11-61.91,52.83-38.28h-.01Z"/>
  <path class="st1" d="M122.45,114.34l-4.49-14.06-32.52,23.63,37.01-9.57Z"/>
</svg>