<svg width="978" height="255" viewBox="0 0 978 255" fill="none" xmlns="http://www.w3.org/2000/svg">
<path d="M944.433 162.742C934.409 162.742 926.425 160.023 920.478 154.587C914.532 149.15 911.432 141.08 911.177 130.377C911.177 129.783 911.177 129.018 911.177 128.084C911.177 127.149 911.177 126.427 911.177 125.918C911.432 119.207 912.918 113.473 915.636 108.716C918.44 103.874 922.262 100.222 927.104 97.7581C932.031 95.2097 937.765 93.9355 944.306 93.9355C951.781 93.9355 957.939 95.4221 962.781 98.3952C967.708 101.368 971.403 105.403 973.867 110.5C976.33 115.597 977.562 121.416 977.562 127.956V131.014C977.562 131.949 977.265 132.713 976.67 133.308C976.075 133.903 975.311 134.2 974.376 134.2H933.602C933.602 134.285 933.602 134.412 933.602 134.582C933.602 134.752 933.602 134.922 933.602 135.092C933.687 137.555 934.112 139.806 934.877 141.845C935.726 143.884 936.915 145.498 938.444 146.687C940.058 147.876 942.012 148.471 944.306 148.471C946.005 148.471 947.406 148.216 948.51 147.706C949.7 147.112 950.677 146.475 951.441 145.795C952.206 145.03 952.8 144.393 953.225 143.884C953.989 142.949 954.584 142.397 955.009 142.227C955.518 141.972 956.283 141.845 957.302 141.845H973.102C973.952 141.845 974.631 142.1 975.141 142.61C975.736 143.119 975.99 143.799 975.905 144.648C975.821 146.092 975.098 147.834 973.739 149.872C972.38 151.911 970.384 153.95 967.751 155.988C965.202 157.942 961.974 159.556 958.067 160.83C954.159 162.105 949.615 162.742 944.433 162.742ZM933.602 121.585H955.136V121.331C955.136 118.527 954.711 116.149 953.862 114.195C953.098 112.156 951.866 110.585 950.167 109.481C948.553 108.376 946.599 107.824 944.306 107.824C942.097 107.824 940.186 108.376 938.572 109.481C936.958 110.585 935.726 112.156 934.877 114.195C934.027 116.149 933.602 118.527 933.602 121.331V121.585Z" fill="white"/>
<path d="M873.86 162.742C867.574 162.742 862.01 161.595 857.168 159.301C852.326 157.008 848.461 153.695 845.573 149.363C842.77 144.946 841.241 139.679 840.986 133.563C840.901 132.204 840.858 130.505 840.858 128.466C840.858 126.342 840.901 124.601 840.986 123.242C841.241 117.041 842.77 111.774 845.573 107.442C848.376 103.025 852.199 99.6694 857.041 97.3759C861.967 95.0823 867.574 93.9355 873.86 93.9355C879.721 93.9355 884.733 94.785 888.895 96.4839C893.143 98.0979 896.54 100.137 899.089 102.6C901.722 105.063 903.676 107.612 904.95 110.245C906.309 112.794 907.031 115.045 907.116 116.998C907.201 117.848 906.904 118.612 906.224 119.292C905.545 119.886 904.78 120.184 903.931 120.184H887.749C886.814 120.184 886.092 119.971 885.582 119.547C885.073 119.122 884.606 118.485 884.181 117.635C883.161 115.002 881.845 113.133 880.231 112.029C878.702 110.925 876.706 110.373 874.242 110.373C870.844 110.373 868.211 111.477 866.342 113.685C864.558 115.894 863.581 119.292 863.412 123.879C863.327 127.277 863.327 130.292 863.412 132.926C863.666 137.598 864.686 140.996 866.47 143.119C868.253 145.243 870.844 146.305 874.242 146.305C876.875 146.305 878.957 145.753 880.486 144.648C882.015 143.459 883.246 141.59 884.181 139.042C884.606 138.192 885.073 137.555 885.582 137.131C886.092 136.706 886.814 136.493 887.749 136.493H903.931C904.78 136.493 905.545 136.791 906.224 137.385C906.904 137.98 907.201 138.744 907.116 139.679C907.031 141.038 906.607 142.694 905.842 144.648C905.077 146.602 903.888 148.641 902.274 150.764C900.66 152.888 898.537 154.842 895.903 156.626C893.355 158.409 890.254 159.896 886.602 161.085C882.949 162.19 878.702 162.742 873.86 162.742Z" fill="white"/>
<path d="M794.621 162.742C790.034 162.742 785.914 161.892 782.262 160.193C778.694 158.409 775.848 156.031 773.725 153.058C771.601 150.085 770.539 146.729 770.539 142.992C770.539 136.961 773.002 132.204 777.929 128.721C782.856 125.153 789.397 122.732 797.552 121.458L813.479 119.037V117.253C813.479 114.195 812.842 111.859 811.568 110.245C810.294 108.631 807.958 107.824 804.56 107.824C802.181 107.824 800.228 108.291 798.699 109.226C797.254 110.16 796.108 111.434 795.258 113.048C794.494 114.153 793.432 114.705 792.073 114.705H777.802C776.867 114.705 776.145 114.45 775.636 113.94C775.126 113.346 774.914 112.666 774.999 111.902C774.999 110.373 775.551 108.631 776.655 106.677C777.844 104.639 779.628 102.642 782.007 100.689C784.385 98.735 787.443 97.121 791.181 95.8468C794.919 94.5726 799.463 93.9355 804.815 93.9355C810.251 93.9355 814.923 94.5726 818.831 95.8468C822.738 97.121 825.924 98.9049 828.387 101.198C830.851 103.492 832.634 106.21 833.739 109.353C834.928 112.411 835.523 115.809 835.523 119.547V158.282C835.523 159.131 835.183 159.896 834.503 160.576C833.909 161.17 833.187 161.467 832.337 161.467H817.557C816.622 161.467 815.858 161.17 815.263 160.576C814.668 159.896 814.371 159.131 814.371 158.282V153.822C813.267 155.436 811.78 156.923 809.911 158.282C808.043 159.641 805.834 160.703 803.286 161.467C800.822 162.317 797.934 162.742 794.621 162.742ZM800.61 148.216C803.073 148.216 805.282 147.706 807.236 146.687C809.274 145.583 810.846 143.926 811.95 141.718C813.139 139.424 813.734 136.578 813.734 133.181V131.397L802.903 133.308C798.911 133.988 795.98 135.049 794.112 136.493C792.328 137.853 791.436 139.467 791.436 141.335C791.436 142.779 791.86 144.011 792.71 145.03C793.559 146.05 794.664 146.857 796.023 147.451C797.467 147.961 798.996 148.216 800.61 148.216Z" fill="white"/>
<path d="M746.504 161.467C745.569 161.467 744.805 161.17 744.21 160.575C743.616 159.896 743.318 159.131 743.318 158.282V74.1855C743.318 73.2511 743.616 72.4866 744.21 71.8919C744.805 71.2973 745.569 71 746.504 71H761.539C762.474 71 763.238 71.2973 763.833 71.8919C764.427 72.4866 764.725 73.2511 764.725 74.1855V158.282C764.725 159.131 764.427 159.896 763.833 160.575C763.238 161.17 762.474 161.467 761.539 161.467H746.504Z" fill="white"/>
<path d="M673.101 185.677C672.167 185.677 671.403 185.337 670.808 184.658C670.213 184.063 669.916 183.341 669.916 182.492V98.3952C669.916 97.4608 670.213 96.6963 670.808 96.1017C671.403 95.507 672.167 95.2097 673.101 95.2097H687.5C688.349 95.2097 689.071 95.507 689.666 96.1017C690.346 96.6963 690.685 97.4608 690.685 98.3952V102.982C692.724 100.434 695.357 98.3103 698.585 96.6113C701.813 94.8275 705.763 93.9355 710.435 93.9355C714.682 93.9355 718.42 94.6151 721.648 95.9743C724.876 97.2484 727.637 99.1597 729.93 101.708C732.309 104.256 734.135 107.357 735.409 111.01C736.683 114.662 737.405 118.867 737.575 123.624C737.66 125.323 737.703 126.895 737.703 128.339C737.703 129.783 737.66 131.354 737.575 133.053C737.405 137.64 736.683 141.76 735.409 145.413C734.135 149.065 732.351 152.166 730.058 154.714C727.764 157.263 724.961 159.259 721.648 160.703C718.42 162.062 714.682 162.742 710.435 162.742C706.273 162.742 702.62 162.02 699.477 160.576C696.419 159.047 693.871 156.923 691.832 154.205V182.492C691.832 183.341 691.535 184.063 690.94 184.658C690.345 185.337 689.581 185.677 688.647 185.677H673.101ZM703.555 145.668C706.443 145.668 708.694 145.073 710.308 143.884C711.922 142.694 713.069 141.08 713.748 139.042C714.513 137.003 714.98 134.752 715.15 132.289C715.32 129.655 715.32 127.022 715.15 124.389C714.98 121.925 714.513 119.674 713.748 117.635C713.069 115.597 711.922 113.983 710.308 112.794C708.694 111.604 706.443 111.01 703.555 111.01C700.836 111.01 698.628 111.647 696.929 112.921C695.23 114.11 693.998 115.682 693.234 117.635C692.469 119.589 692.002 121.713 691.832 124.006C691.747 125.62 691.705 127.192 691.705 128.721C691.705 130.25 691.747 131.864 691.832 133.563C691.917 135.686 692.384 137.683 693.234 139.551C694.083 141.335 695.357 142.822 697.056 144.011C698.755 145.115 700.921 145.668 703.555 145.668Z" fill="white"/>
<path d="M645.562 161.467C644.628 161.467 643.864 161.17 643.269 160.575C642.674 159.896 642.377 159.131 642.377 158.282V74.1855C642.377 73.2511 642.674 72.4866 643.269 71.8919C643.864 71.2973 644.628 71 645.562 71H660.598C661.532 71 662.297 71.2973 662.891 71.8919C663.486 72.4866 663.783 73.2511 663.783 74.1855V158.282C663.783 159.131 663.486 159.896 662.891 160.575C662.297 161.17 661.532 161.467 660.598 161.467H645.562Z" fill="white"/>
<path d="M603.045 162.742C593.022 162.742 585.037 160.023 579.091 154.587C573.144 149.15 570.044 141.08 569.789 130.377C569.789 129.783 569.789 129.018 569.789 128.084C569.789 127.149 569.789 126.427 569.789 125.918C570.044 119.207 571.53 113.473 574.249 108.716C577.052 103.874 580.874 100.222 585.716 97.7581C590.643 95.2097 596.377 93.9355 602.918 93.9355C610.393 93.9355 616.552 95.4221 621.394 98.3952C626.321 101.368 630.016 105.403 632.479 110.5C634.943 115.597 636.174 121.416 636.174 127.956V131.014C636.174 131.949 635.877 132.713 635.282 133.308C634.688 133.903 633.923 134.2 632.989 134.2H592.215C592.215 134.285 592.215 134.412 592.215 134.582C592.215 134.752 592.215 134.922 592.215 135.092C592.3 137.555 592.724 139.806 593.489 141.845C594.338 143.884 595.528 145.498 597.057 146.687C598.671 147.876 600.624 148.471 602.918 148.471C604.617 148.471 606.018 148.216 607.123 147.706C608.312 147.112 609.289 146.475 610.053 145.795C610.818 145.03 611.413 144.393 611.837 143.884C612.602 142.949 613.196 142.397 613.621 142.227C614.131 141.972 614.895 141.845 615.915 141.845H631.715C632.564 141.845 633.244 142.1 633.753 142.61C634.348 143.119 634.603 143.799 634.518 144.648C634.433 146.092 633.711 147.834 632.352 149.872C630.993 151.911 628.996 153.95 626.363 155.988C623.815 157.942 620.587 159.556 616.679 160.83C612.772 162.105 608.227 162.742 603.045 162.742ZM592.215 121.585H613.749V121.331C613.749 118.527 613.324 116.149 612.474 114.195C611.71 112.156 610.478 110.585 608.779 109.481C607.165 108.376 605.211 107.824 602.918 107.824C600.709 107.824 598.798 108.376 597.184 109.481C595.57 110.585 594.338 112.156 593.489 114.195C592.639 116.149 592.215 118.527 592.215 121.331V121.585Z" fill="white"/>
<path d="M530.456 162.742C520.433 162.742 512.448 160.023 506.502 154.587C500.556 149.15 497.455 141.08 497.2 130.377C497.2 129.783 497.2 129.018 497.2 128.084C497.2 127.149 497.2 126.427 497.2 125.918C497.455 119.207 498.942 113.473 501.66 108.716C504.463 103.874 508.286 100.222 513.128 97.7581C518.054 95.2097 523.788 93.9355 530.329 93.9355C537.804 93.9355 543.963 95.4221 548.805 98.3952C553.732 101.368 557.427 105.403 559.89 110.5C562.354 115.597 563.585 121.416 563.585 127.956V131.014C563.585 131.949 563.288 132.713 562.693 133.308C562.099 133.903 561.334 134.2 560.4 134.2H519.626C519.626 134.285 519.626 134.412 519.626 134.582C519.626 134.752 519.626 134.922 519.626 135.092C519.711 137.555 520.136 139.806 520.9 141.845C521.75 143.884 522.939 145.498 524.468 146.687C526.082 147.876 528.036 148.471 530.329 148.471C532.028 148.471 533.43 148.216 534.534 147.706C535.723 147.112 536.7 146.475 537.465 145.795C538.229 145.03 538.824 144.393 539.248 143.884C540.013 142.949 540.608 142.397 541.032 142.227C541.542 141.972 542.306 141.845 543.326 141.845H559.126C559.975 141.845 560.655 142.1 561.164 142.61C561.759 143.119 562.014 143.799 561.929 144.648C561.844 146.092 561.122 147.834 559.763 149.872C558.404 151.911 556.407 153.95 553.774 155.988C551.226 157.942 547.998 159.556 544.09 160.83C540.183 162.105 535.638 162.742 530.456 162.742ZM519.626 121.585H541.16V121.331C541.16 118.527 540.735 116.149 539.885 114.195C539.121 112.156 537.889 110.585 536.19 109.481C534.576 108.376 532.623 107.824 530.329 107.824C528.12 107.824 526.209 108.376 524.595 109.481C522.981 110.585 521.75 112.156 520.9 114.195C520.051 116.149 519.626 118.527 519.626 121.331V121.585Z" fill="white"/>
<path d="M426.665 161.467C425.731 161.467 424.966 161.17 424.371 160.575C423.777 159.896 423.479 159.131 423.479 158.282V74.1855C423.479 73.2511 423.777 72.4866 424.371 71.8919C424.966 71.2973 425.731 71 426.665 71H442.975C443.909 71 444.673 71.2973 445.268 71.8919C445.863 72.4866 446.16 73.2511 446.16 74.1855V102.6C448.454 99.9665 451.257 97.8854 454.57 96.3563C457.967 94.7424 461.875 93.9354 466.292 93.9354C471.219 93.9354 475.594 95.0397 479.416 97.2483C483.324 99.4569 486.382 102.685 488.59 106.932C490.799 111.179 491.903 116.446 491.903 122.732V158.282C491.903 159.131 491.606 159.896 491.011 160.575C490.417 161.17 489.652 161.467 488.718 161.467H472.281C471.431 161.467 470.667 161.17 469.987 160.575C469.393 159.896 469.095 159.131 469.095 158.282V123.497C469.095 119.504 468.119 116.446 466.165 114.322C464.296 112.114 461.535 111.009 457.883 111.009C454.315 111.009 451.469 112.114 449.345 114.322C447.222 116.446 446.16 119.504 446.16 123.497V158.282C446.16 159.131 445.863 159.896 445.268 160.575C444.673 161.17 443.909 161.467 442.975 161.467H426.665Z" fill="white"/>
<path d="M340.808 161.469C339.534 161.469 338.599 161.171 338.005 160.577C337.41 159.897 336.943 159.133 336.603 158.283L318.255 99.2883C318.085 98.8636 318 98.4389 318 98.0142C318 97.2496 318.297 96.6125 318.892 96.1029C319.487 95.5083 320.166 95.2109 320.931 95.2109H334.055C335.159 95.2109 336.009 95.5083 336.603 96.1029C337.283 96.6975 337.707 97.2921 337.877 97.8867L348.581 134.328L360.048 98.0142C360.218 97.4195 360.6 96.8249 361.195 96.2303C361.875 95.5507 362.809 95.2109 363.998 95.2109H372.408C373.597 95.2109 374.531 95.5507 375.211 96.2303C375.891 96.8249 376.273 97.4195 376.358 98.0142L387.825 134.328L398.529 97.8867C398.699 97.2921 399.081 96.6975 399.675 96.1029C400.355 95.5083 401.247 95.2109 402.351 95.2109H415.475C416.24 95.2109 416.919 95.5083 417.514 96.1029C418.109 96.6125 418.406 97.2496 418.406 98.0142C418.406 98.4389 418.321 98.8636 418.151 99.2883L399.803 158.283C399.548 159.133 399.081 159.897 398.401 160.577C397.807 161.171 396.872 161.469 395.598 161.469H384.13C382.941 161.469 382.007 161.171 381.327 160.577C380.648 159.897 380.18 159.133 379.926 158.283L368.203 123.37L356.48 158.283C356.226 159.133 355.758 159.897 355.079 160.577C354.399 161.171 353.465 161.469 352.276 161.469H340.808Z" fill="white"/>
<g clip-path="url(#clip0_2043_1338)">
<path d="M127.505 255.01C197.924 255.01 255.01 197.924 255.01 127.505C255.01 57.0859 197.924 0 127.505 0C57.0859 0 0 57.0859 0 127.505C0 197.924 57.0859 255.01 127.505 255.01Z" fill="#347CFC"/>
<path d="M152.789 147.717H152.78C152.78 150.485 150.542 152.722 147.775 152.722C145.007 152.722 142.77 150.485 142.77 147.727C142.77 147.621 142.77 147.534 142.779 147.437V99.1531H142.77V86.4527C142.77 77.9666 135.894 71.0908 127.408 71.0908C118.922 71.0908 112.046 77.9666 112.046 86.4527V99.3266V147.727H112.036C112.036 150.494 109.799 152.732 107.031 152.732C104.264 152.732 102.027 150.494 102.027 147.727C102.027 147.63 102.027 147.534 102.046 147.437V99.3266H102.027V86.4527C102.027 77.9666 95.1508 71.0908 86.6646 71.0908C78.1785 71.0908 71.3027 77.9666 71.3027 86.4527V148.392C71.3027 168.132 87.3011 184.131 107.041 184.131C114.611 184.131 121.632 181.768 127.418 177.747C133.194 181.768 140.214 184.131 147.794 184.131C167.534 184.131 183.532 168.132 183.532 148.392V111.815H152.799V147.717H152.789Z" fill="white"/>
<path d="M183.513 71.0811H168.151C159.665 71.0811 152.789 77.9568 152.789 86.443V101.805H183.523C192.009 101.805 198.884 94.9291 198.884 86.443C198.884 77.9568 192.009 71.0811 183.523 71.0811H183.513Z" fill="white"/>
</g>
<defs>
<clipPath id="clip0_2043_1338">
<rect width="255" height="255" fill="white"/>
</clipPath>
</defs>
</svg>
